<mxfile host="app.diagrams.net" agent="Mozilla/5.0 (Windows NT 10.0; Win64; x64; rv:136.0) Gecko/20100101 Firefox/136.0" version="26.0.11" pages="3">
  <diagram name="Page-1" id="90a13364-a465-7bf4-72fc-28e22215d7a0">
    <mxGraphModel dx="2674.5" dy="754" grid="1" gridSize="10" guides="1" tooltips="1" connect="1" arrows="1" fold="1" page="1" pageScale="1.5" pageWidth="827" pageHeight="1169" background="none" math="0" shadow="0">
      <root>
        <mxCell id="0" style=";html=1;" />
        <mxCell id="1" style=";html=1;" parent="0" />
        <mxCell id="35C-zRPfyHv-aXlCUiWr-6" value="" style="rounded=0;whiteSpace=wrap;html=1;" parent="1" vertex="1">
          <mxGeometry x="550" y="50" width="580" height="440" as="geometry" />
        </mxCell>
        <mxCell id="355GLdrolQoe34CYBVQ8-6" value="" style="rounded=0;whiteSpace=wrap;html=1;" parent="1" vertex="1">
          <mxGeometry x="915" y="60" width="200" height="303.5" as="geometry" />
        </mxCell>
        <mxCell id="jSPrN0brKESPCwidPNHG-5" value="&lt;font style=&quot;font-size: 18px;&quot;&gt;Microcontrolador&lt;/font&gt;&lt;br&gt;RTOS" style="rounded=0;whiteSpace=wrap;html=1;direction=south;fontSize=20;" parent="1" vertex="1">
          <mxGeometry x="600" y="100" width="180" height="237" as="geometry" />
        </mxCell>
        <mxCell id="355GLdrolQoe34CYBVQ8-1" value="&lt;font style=&quot;font-size: 19px;&quot;&gt;N-Mos&lt;/font&gt;" style="whiteSpace=wrap;html=1;aspect=fixed;fontSize=20;" parent="1" vertex="1">
          <mxGeometry x="940" y="110" width="60" height="60" as="geometry" />
        </mxCell>
        <mxCell id="355GLdrolQoe34CYBVQ8-3" value="&lt;font style=&quot;font-size: 19px;&quot;&gt;Heater&lt;/font&gt;" style="whiteSpace=wrap;html=1;aspect=fixed;fontSize=20;" parent="1" vertex="1">
          <mxGeometry x="1030" y="110" width="60" height="60" as="geometry" />
        </mxCell>
        <mxCell id="355GLdrolQoe34CYBVQ8-4" value="&lt;div&gt;Cooler (v cte)&lt;br&gt;&lt;/div&gt;" style="rounded=0;whiteSpace=wrap;html=1;" parent="1" vertex="1">
          <mxGeometry x="940" y="270" width="150" height="60" as="geometry" />
        </mxCell>
        <mxCell id="355GLdrolQoe34CYBVQ8-5" value="Termistor" style="rounded=0;whiteSpace=wrap;html=1;" parent="1" vertex="1">
          <mxGeometry x="940" y="220" width="150" height="40" as="geometry" />
        </mxCell>
        <mxCell id="355GLdrolQoe34CYBVQ8-7" value="" style="endArrow=classic;html=1;rounded=0;entryX=0;entryY=0.5;entryDx=0;entryDy=0;exitX=0.844;exitY=0;exitDx=0;exitDy=0;exitPerimeter=0;" parent="1" source="jSPrN0brKESPCwidPNHG-5" target="355GLdrolQoe34CYBVQ8-4" edge="1">
          <mxGeometry width="50" height="50" relative="1" as="geometry">
            <mxPoint x="830" y="350" as="sourcePoint" />
            <mxPoint x="880" y="300" as="targetPoint" />
          </mxGeometry>
        </mxCell>
        <mxCell id="355GLdrolQoe34CYBVQ8-9" value="" style="endArrow=classic;html=1;rounded=0;entryX=0;entryY=0.5;entryDx=0;entryDy=0;exitX=0.168;exitY=-0.004;exitDx=0;exitDy=0;exitPerimeter=0;" parent="1" source="jSPrN0brKESPCwidPNHG-5" target="355GLdrolQoe34CYBVQ8-1" edge="1">
          <mxGeometry width="50" height="50" relative="1" as="geometry">
            <mxPoint x="820" y="210" as="sourcePoint" />
            <mxPoint x="870" y="160" as="targetPoint" />
          </mxGeometry>
        </mxCell>
        <mxCell id="355GLdrolQoe34CYBVQ8-10" value="" style="endArrow=classic;html=1;rounded=0;entryX=0;entryY=0.5;entryDx=0;entryDy=0;exitX=1;exitY=0.5;exitDx=0;exitDy=0;" parent="1" source="355GLdrolQoe34CYBVQ8-1" target="355GLdrolQoe34CYBVQ8-3" edge="1">
          <mxGeometry width="50" height="50" relative="1" as="geometry">
            <mxPoint x="900" y="280" as="sourcePoint" />
            <mxPoint x="950" y="230" as="targetPoint" />
          </mxGeometry>
        </mxCell>
        <mxCell id="GrLBo9PtLHuX9XOGEQVJ-1" value="PID Stage" style="text;html=1;align=center;verticalAlign=middle;whiteSpace=wrap;rounded=0;" parent="1" vertex="1">
          <mxGeometry x="980" y="60" width="60" height="30" as="geometry" />
        </mxCell>
        <mxCell id="GrLBo9PtLHuX9XOGEQVJ-2" value="I2C OLED Display" style="rounded=1;whiteSpace=wrap;html=1;" parent="1" vertex="1">
          <mxGeometry x="600" y="400" width="180" height="70" as="geometry" />
        </mxCell>
        <mxCell id="GrLBo9PtLHuX9XOGEQVJ-8" value="" style="endArrow=classic;startArrow=classic;html=1;rounded=0;entryX=1;entryY=0.5;entryDx=0;entryDy=0;exitX=0.5;exitY=0;exitDx=0;exitDy=0;" parent="1" source="GrLBo9PtLHuX9XOGEQVJ-2" target="jSPrN0brKESPCwidPNHG-5" edge="1">
          <mxGeometry width="50" height="50" relative="1" as="geometry">
            <mxPoint x="640" y="413.5" as="sourcePoint" />
            <mxPoint x="690" y="363.5" as="targetPoint" />
          </mxGeometry>
        </mxCell>
        <mxCell id="GrLBo9PtLHuX9XOGEQVJ-9" value="" style="endArrow=classic;html=1;rounded=0;entryX=0.59;entryY=0;entryDx=0;entryDy=0;entryPerimeter=0;exitX=0;exitY=0.5;exitDx=0;exitDy=0;" parent="1" source="355GLdrolQoe34CYBVQ8-5" target="jSPrN0brKESPCwidPNHG-5" edge="1">
          <mxGeometry width="50" height="50" relative="1" as="geometry">
            <mxPoint x="820" y="300" as="sourcePoint" />
            <mxPoint x="870" y="250" as="targetPoint" />
          </mxGeometry>
        </mxCell>
        <mxCell id="GrLBo9PtLHuX9XOGEQVJ-10" value="Digital Output" style="text;html=1;align=center;verticalAlign=middle;whiteSpace=wrap;rounded=0;" parent="1" vertex="1">
          <mxGeometry x="790" y="110" width="100" height="30" as="geometry" />
        </mxCell>
        <mxCell id="GrLBo9PtLHuX9XOGEQVJ-11" value="Analog Input" style="text;html=1;align=center;verticalAlign=middle;whiteSpace=wrap;rounded=0;" parent="1" vertex="1">
          <mxGeometry x="790" y="210" width="100" height="30" as="geometry" />
        </mxCell>
        <mxCell id="GrLBo9PtLHuX9XOGEQVJ-12" value="Digital Output" style="text;html=1;align=center;verticalAlign=middle;whiteSpace=wrap;rounded=0;" parent="1" vertex="1">
          <mxGeometry x="790" y="270" width="100" height="30" as="geometry" />
        </mxCell>
        <mxCell id="GrLBo9PtLHuX9XOGEQVJ-13" value="I2C Comm" style="text;html=1;align=center;verticalAlign=middle;whiteSpace=wrap;rounded=0;" parent="1" vertex="1">
          <mxGeometry x="620.5" y="350" width="60" height="40" as="geometry" />
        </mxCell>
        <mxCell id="uA3TDthxbYoM9Gd3NzN--17" value="" style="edgeStyle=orthogonalEdgeStyle;rounded=0;orthogonalLoop=1;jettySize=auto;html=1;entryX=0;entryY=0.5;entryDx=0;entryDy=0;" parent="1" source="vvelxjKlHn5M0ghXR4K2-3" target="uA3TDthxbYoM9Gd3NzN--13" edge="1">
          <mxGeometry relative="1" as="geometry">
            <mxPoint x="-200" y="255" as="targetPoint" />
            <Array as="points">
              <mxPoint x="-240" y="290" />
            </Array>
          </mxGeometry>
        </mxCell>
        <mxCell id="vvelxjKlHn5M0ghXR4K2-3" value="&lt;font style=&quot;font-size: 18px;&quot;&gt;Microcontrolador&lt;/font&gt;&lt;br&gt;RTOS" style="rounded=0;whiteSpace=wrap;html=1;direction=south;fontSize=20;" parent="1" vertex="1">
          <mxGeometry x="-330" y="390" width="180" height="237" as="geometry" />
        </mxCell>
        <mxCell id="vvelxjKlHn5M0ghXR4K2-4" value="&lt;font style=&quot;font-size: 19px;&quot;&gt;N-Mos&lt;/font&gt;" style="whiteSpace=wrap;html=1;aspect=fixed;fontSize=20;" parent="1" vertex="1">
          <mxGeometry x="-100" y="400" width="60" height="60" as="geometry" />
        </mxCell>
        <mxCell id="uA3TDthxbYoM9Gd3NzN--2" value="" style="edgeStyle=orthogonalEdgeStyle;rounded=0;orthogonalLoop=1;jettySize=auto;html=1;" parent="1" source="vvelxjKlHn5M0ghXR4K2-5" target="vvelxjKlHn5M0ghXR4K2-7" edge="1">
          <mxGeometry relative="1" as="geometry" />
        </mxCell>
        <mxCell id="uA3TDthxbYoM9Gd3NzN--7" value="Medición de temperatura" style="edgeLabel;html=1;align=center;verticalAlign=middle;resizable=0;points=[];" parent="uA3TDthxbYoM9Gd3NzN--2" vertex="1" connectable="0">
          <mxGeometry x="0.1556" y="2" relative="1" as="geometry">
            <mxPoint as="offset" />
          </mxGeometry>
        </mxCell>
        <mxCell id="vvelxjKlHn5M0ghXR4K2-5" value="&lt;span style=&quot;font-size: 19px;&quot;&gt;Heater&lt;/span&gt;" style="whiteSpace=wrap;html=1;aspect=fixed;fontSize=20;" parent="1" vertex="1">
          <mxGeometry x="30" y="375" width="110" height="110" as="geometry" />
        </mxCell>
        <mxCell id="uA3TDthxbYoM9Gd3NzN--3" value="- Temperatura" style="edgeStyle=orthogonalEdgeStyle;rounded=0;orthogonalLoop=1;jettySize=auto;html=1;" parent="1" source="vvelxjKlHn5M0ghXR4K2-6" target="vvelxjKlHn5M0ghXR4K2-5" edge="1">
          <mxGeometry relative="1" as="geometry" />
        </mxCell>
        <mxCell id="vvelxjKlHn5M0ghXR4K2-6" value="&lt;div&gt;Cooler (v cte)&lt;br&gt;&lt;/div&gt;" style="rounded=0;whiteSpace=wrap;html=1;" parent="1" vertex="1">
          <mxGeometry x="30" y="260" width="110" height="60" as="geometry" />
        </mxCell>
        <mxCell id="vvelxjKlHn5M0ghXR4K2-7" value="Termistor" style="rounded=0;whiteSpace=wrap;html=1;" parent="1" vertex="1">
          <mxGeometry x="10" y="520" width="150" height="40" as="geometry" />
        </mxCell>
        <mxCell id="vvelxjKlHn5M0ghXR4K2-9" value="" style="endArrow=classic;html=1;rounded=0;entryX=0;entryY=0.5;entryDx=0;entryDy=0;exitX=0.168;exitY=-0.004;exitDx=0;exitDy=0;exitPerimeter=0;" parent="1" source="vvelxjKlHn5M0ghXR4K2-3" target="vvelxjKlHn5M0ghXR4K2-4" edge="1">
          <mxGeometry width="50" height="50" relative="1" as="geometry">
            <mxPoint x="80" y="210" as="sourcePoint" />
            <mxPoint x="130" y="160" as="targetPoint" />
          </mxGeometry>
        </mxCell>
        <mxCell id="uA3TDthxbYoM9Gd3NzN--19" value="Señal" style="edgeLabel;html=1;align=center;verticalAlign=middle;resizable=0;points=[];" parent="vvelxjKlHn5M0ghXR4K2-9" vertex="1" connectable="0">
          <mxGeometry x="0.0057" relative="1" as="geometry">
            <mxPoint y="10" as="offset" />
          </mxGeometry>
        </mxCell>
        <mxCell id="vvelxjKlHn5M0ghXR4K2-10" value="" style="endArrow=classic;html=1;rounded=0;entryX=0;entryY=0.5;entryDx=0;entryDy=0;exitX=1;exitY=0.5;exitDx=0;exitDy=0;" parent="1" source="vvelxjKlHn5M0ghXR4K2-4" target="vvelxjKlHn5M0ghXR4K2-5" edge="1">
          <mxGeometry width="50" height="50" relative="1" as="geometry">
            <mxPoint x="145" y="280" as="sourcePoint" />
            <mxPoint x="195" y="230" as="targetPoint" />
          </mxGeometry>
        </mxCell>
        <mxCell id="uA3TDthxbYoM9Gd3NzN--11" value="Corriente" style="edgeLabel;html=1;align=center;verticalAlign=middle;resizable=0;points=[];" parent="vvelxjKlHn5M0ghXR4K2-10" vertex="1" connectable="0">
          <mxGeometry x="0.14" y="-3" relative="1" as="geometry">
            <mxPoint x="-10" y="-13" as="offset" />
          </mxGeometry>
        </mxCell>
        <mxCell id="uA3TDthxbYoM9Gd3NzN--4" style="edgeStyle=orthogonalEdgeStyle;rounded=0;orthogonalLoop=1;jettySize=auto;html=1;exitX=0.5;exitY=1;exitDx=0;exitDy=0;entryX=0.802;entryY=-0.025;entryDx=0;entryDy=0;entryPerimeter=0;" parent="1" source="vvelxjKlHn5M0ghXR4K2-7" target="vvelxjKlHn5M0ghXR4K2-3" edge="1">
          <mxGeometry relative="1" as="geometry" />
        </mxCell>
        <mxCell id="uA3TDthxbYoM9Gd3NzN--5" value="" style="edgeStyle=orthogonalEdgeStyle;rounded=0;orthogonalLoop=1;jettySize=auto;html=1;exitX=1;exitY=0.5;exitDx=0;exitDy=0;" parent="1" source="vvelxjKlHn5M0ghXR4K2-5" edge="1">
          <mxGeometry relative="1" as="geometry">
            <mxPoint x="210" y="430" as="sourcePoint" />
            <mxPoint x="280" y="430" as="targetPoint" />
          </mxGeometry>
        </mxCell>
        <mxCell id="uA3TDthxbYoM9Gd3NzN--6" value="Temperatura final" style="edgeLabel;html=1;align=center;verticalAlign=middle;resizable=0;points=[];" parent="uA3TDthxbYoM9Gd3NzN--5" vertex="1" connectable="0">
          <mxGeometry x="0.1433" y="1" relative="1" as="geometry">
            <mxPoint x="-15" y="-9" as="offset" />
          </mxGeometry>
        </mxCell>
        <mxCell id="uA3TDthxbYoM9Gd3NzN--15" value="" style="edgeStyle=orthogonalEdgeStyle;rounded=0;orthogonalLoop=1;jettySize=auto;html=1;" parent="1" source="uA3TDthxbYoM9Gd3NzN--13" target="vvelxjKlHn5M0ghXR4K2-6" edge="1">
          <mxGeometry relative="1" as="geometry" />
        </mxCell>
        <mxCell id="uA3TDthxbYoM9Gd3NzN--13" value="&lt;font style=&quot;font-size: 19px;&quot;&gt;N-Mos&lt;/font&gt;" style="whiteSpace=wrap;html=1;aspect=fixed;fontSize=20;" parent="1" vertex="1">
          <mxGeometry x="-100" y="260" width="60" height="60" as="geometry" />
        </mxCell>
        <mxCell id="uA3TDthxbYoM9Gd3NzN--18" value="Corriente" style="edgeLabel;html=1;align=center;verticalAlign=middle;resizable=0;points=[];" parent="1" vertex="1" connectable="0">
          <mxGeometry x="-10" y="300" as="geometry" />
        </mxCell>
        <mxCell id="uA3TDthxbYoM9Gd3NzN--20" value="Señal" style="edgeLabel;html=1;align=center;verticalAlign=middle;resizable=0;points=[];" parent="1" vertex="1" connectable="0">
          <mxGeometry x="-100.00017426080623" y="419.99934350519504" as="geometry">
            <mxPoint x="-71" y="-121" as="offset" />
          </mxGeometry>
        </mxCell>
        <mxCell id="uA3TDthxbYoM9Gd3NzN--21" value="Señal" style="edgeLabel;html=1;align=center;verticalAlign=middle;resizable=0;points=[];" parent="1" vertex="1" connectable="0">
          <mxGeometry x="-50.00017426080623" y="569.999343505195" as="geometry" />
        </mxCell>
        <mxCell id="3Qi95VRnS-WLnVLDIC3n-1" value="Leo Dato&lt;span style=&quot;white-space: pre;&quot;&gt;&#x9;&lt;/span&gt;" style="whiteSpace=wrap;html=1;aspect=fixed;" vertex="1" parent="1">
          <mxGeometry x="-1100" y="140" width="80" height="80" as="geometry" />
        </mxCell>
        <mxCell id="3Qi95VRnS-WLnVLDIC3n-2" value="Proceso y Comparo" style="whiteSpace=wrap;html=1;aspect=fixed;" vertex="1" parent="1">
          <mxGeometry x="-960" y="140" width="80" height="80" as="geometry" />
        </mxCell>
        <mxCell id="3Qi95VRnS-WLnVLDIC3n-3" value="Ajusto PWM" style="whiteSpace=wrap;html=1;aspect=fixed;" vertex="1" parent="1">
          <mxGeometry x="-830.5" y="140" width="80" height="80" as="geometry" />
        </mxCell>
        <mxCell id="3Qi95VRnS-WLnVLDIC3n-4" value="Muestro en pantalla" style="whiteSpace=wrap;html=1;aspect=fixed;" vertex="1" parent="1">
          <mxGeometry x="-710" y="140" width="80" height="80" as="geometry" />
        </mxCell>
        <mxCell id="3Qi95VRnS-WLnVLDIC3n-6" value="" style="endArrow=classic;html=1;rounded=0;exitX=1;exitY=0.5;exitDx=0;exitDy=0;entryX=0;entryY=0.5;entryDx=0;entryDy=0;" edge="1" parent="1" source="3Qi95VRnS-WLnVLDIC3n-1" target="3Qi95VRnS-WLnVLDIC3n-2">
          <mxGeometry width="50" height="50" relative="1" as="geometry">
            <mxPoint x="-1000" y="315" as="sourcePoint" />
            <mxPoint x="-950" y="265" as="targetPoint" />
          </mxGeometry>
        </mxCell>
        <mxCell id="3Qi95VRnS-WLnVLDIC3n-7" value="" style="endArrow=classic;html=1;rounded=0;exitX=1;exitY=0.5;exitDx=0;exitDy=0;entryX=0;entryY=0.5;entryDx=0;entryDy=0;" edge="1" parent="1" source="3Qi95VRnS-WLnVLDIC3n-2" target="3Qi95VRnS-WLnVLDIC3n-3">
          <mxGeometry width="50" height="50" relative="1" as="geometry">
            <mxPoint x="-1010" y="190" as="sourcePoint" />
            <mxPoint x="-950" y="190" as="targetPoint" />
          </mxGeometry>
        </mxCell>
        <mxCell id="3Qi95VRnS-WLnVLDIC3n-8" value="" style="endArrow=classic;html=1;rounded=0;exitX=1;exitY=0.5;exitDx=0;exitDy=0;entryX=0;entryY=0.5;entryDx=0;entryDy=0;" edge="1" parent="1" source="3Qi95VRnS-WLnVLDIC3n-3" target="3Qi95VRnS-WLnVLDIC3n-4">
          <mxGeometry width="50" height="50" relative="1" as="geometry">
            <mxPoint x="-1000" y="200" as="sourcePoint" />
            <mxPoint x="-940" y="200" as="targetPoint" />
          </mxGeometry>
        </mxCell>
        <mxCell id="3Qi95VRnS-WLnVLDIC3n-11" value="" style="endArrow=classic;html=1;rounded=0;exitX=1;exitY=0.5;exitDx=0;exitDy=0;entryX=0;entryY=0.5;entryDx=0;entryDy=0;" edge="1" parent="1" source="3Qi95VRnS-WLnVLDIC3n-4" target="3Qi95VRnS-WLnVLDIC3n-1">
          <mxGeometry width="50" height="50" relative="1" as="geometry">
            <mxPoint x="-720" y="370" as="sourcePoint" />
            <mxPoint x="-1180" y="190" as="targetPoint" />
            <Array as="points">
              <mxPoint x="-570" y="180" />
              <mxPoint x="-570" y="310" />
              <mxPoint x="-1180" y="310" />
              <mxPoint x="-1180" y="180" />
            </Array>
          </mxGeometry>
        </mxCell>
      </root>
    </mxGraphModel>
  </diagram>
  <diagram id="dFZz5i8Cy6UYqAbTh7uR" name="Página-2">
    <mxGraphModel dx="2261" dy="754" grid="1" gridSize="10" guides="1" tooltips="1" connect="1" arrows="1" fold="1" page="1" pageScale="1" pageWidth="827" pageHeight="1169" math="0" shadow="0">
      <root>
        <mxCell id="0" />
        <mxCell id="1" parent="0" />
        <mxCell id="2VRXxN_XEZRk6mcmsxM--8" style="edgeStyle=orthogonalEdgeStyle;rounded=0;orthogonalLoop=1;jettySize=auto;html=1;exitX=1;exitY=0.5;exitDx=0;exitDy=0;entryX=0;entryY=0.5;entryDx=0;entryDy=0;" parent="1" source="Uq3NfLOFYtls6R0m_rHG-1" target="2VRXxN_XEZRk6mcmsxM--16" edge="1">
          <mxGeometry relative="1" as="geometry">
            <Array as="points">
              <mxPoint x="60" y="518" />
              <mxPoint x="60" y="350" />
            </Array>
          </mxGeometry>
        </mxCell>
        <mxCell id="2VRXxN_XEZRk6mcmsxM--10" style="edgeStyle=orthogonalEdgeStyle;rounded=0;orthogonalLoop=1;jettySize=auto;html=1;exitX=1;exitY=0.5;exitDx=0;exitDy=0;entryX=0;entryY=0.5;entryDx=0;entryDy=0;" parent="1" source="Uq3NfLOFYtls6R0m_rHG-1" target="2VRXxN_XEZRk6mcmsxM--17" edge="1">
          <mxGeometry relative="1" as="geometry" />
        </mxCell>
        <mxCell id="2VRXxN_XEZRk6mcmsxM--12" style="edgeStyle=orthogonalEdgeStyle;rounded=0;orthogonalLoop=1;jettySize=auto;html=1;exitX=1;exitY=0.5;exitDx=0;exitDy=0;entryX=0;entryY=0.5;entryDx=0;entryDy=0;" parent="1" source="Uq3NfLOFYtls6R0m_rHG-1" target="2VRXxN_XEZRk6mcmsxM--23" edge="1">
          <mxGeometry relative="1" as="geometry">
            <Array as="points">
              <mxPoint x="60" y="518" />
              <mxPoint x="60" y="678" />
            </Array>
          </mxGeometry>
        </mxCell>
        <mxCell id="2VRXxN_XEZRk6mcmsxM--13" style="edgeStyle=orthogonalEdgeStyle;rounded=0;orthogonalLoop=1;jettySize=auto;html=1;exitX=1;exitY=0.5;exitDx=0;exitDy=0;entryX=0;entryY=0.5;entryDx=0;entryDy=0;" parent="1" source="Uq3NfLOFYtls6R0m_rHG-1" target="2VRXxN_XEZRk6mcmsxM--24" edge="1">
          <mxGeometry relative="1" as="geometry">
            <Array as="points">
              <mxPoint x="60" y="518" />
              <mxPoint x="60" y="860" />
            </Array>
          </mxGeometry>
        </mxCell>
        <mxCell id="Uq3NfLOFYtls6R0m_rHG-1" value="&lt;font style=&quot;font-size: 18px;&quot;&gt;Idle State&lt;/font&gt;" style="whiteSpace=wrap;html=1;aspect=fixed;" parent="1" vertex="1">
          <mxGeometry x="-120" y="440" width="155" height="155" as="geometry" />
        </mxCell>
        <mxCell id="2VRXxN_XEZRk6mcmsxM--1" value="Event &lt;br&gt;Ingresa al Granero" style="whiteSpace=wrap;html=1;aspect=fixed;" parent="1" vertex="1">
          <mxGeometry x="650" y="272.5" width="155" height="155" as="geometry" />
        </mxCell>
        <mxCell id="2VRXxN_XEZRk6mcmsxM--2" value="Event &lt;br&gt;Sale del Granero" style="whiteSpace=wrap;html=1;aspect=fixed;" parent="1" vertex="1">
          <mxGeometry x="650" y="440" width="155" height="155" as="geometry" />
        </mxCell>
        <mxCell id="2VRXxN_XEZRk6mcmsxM--3" value="Event &lt;br&gt;Cuenta máxima" style="whiteSpace=wrap;html=1;aspect=fixed;" parent="1" vertex="1">
          <mxGeometry x="650" y="600" width="155" height="155" as="geometry" />
        </mxCell>
        <mxCell id="2VRXxN_XEZRk6mcmsxM--4" value="Event&lt;br&gt;Error" style="whiteSpace=wrap;html=1;aspect=fixed;" parent="1" vertex="1">
          <mxGeometry x="650" y="782.5" width="155" height="155" as="geometry" />
        </mxCell>
        <mxCell id="2VRXxN_XEZRk6mcmsxM--21" style="edgeStyle=orthogonalEdgeStyle;rounded=0;orthogonalLoop=1;jettySize=auto;html=1;exitX=1;exitY=0.5;exitDx=0;exitDy=0;entryX=0;entryY=0.5;entryDx=0;entryDy=0;" parent="1" source="2VRXxN_XEZRk6mcmsxM--16" target="2VRXxN_XEZRk6mcmsxM--19" edge="1">
          <mxGeometry relative="1" as="geometry" />
        </mxCell>
        <mxCell id="2VRXxN_XEZRk6mcmsxM--39" style="edgeStyle=orthogonalEdgeStyle;rounded=0;orthogonalLoop=1;jettySize=auto;html=1;exitX=0.5;exitY=0;exitDx=0;exitDy=0;entryX=0.5;entryY=0;entryDx=0;entryDy=0;strokeColor=#FF6666;" parent="1" source="2VRXxN_XEZRk6mcmsxM--16" target="Uq3NfLOFYtls6R0m_rHG-1" edge="1">
          <mxGeometry relative="1" as="geometry" />
        </mxCell>
        <mxCell id="2VRXxN_XEZRk6mcmsxM--16" value="IRModule_A is active?" style="rhombus;whiteSpace=wrap;html=1;" parent="1" vertex="1">
          <mxGeometry x="290" y="290" width="120" height="120" as="geometry" />
        </mxCell>
        <mxCell id="2VRXxN_XEZRk6mcmsxM--22" style="edgeStyle=orthogonalEdgeStyle;rounded=0;orthogonalLoop=1;jettySize=auto;html=1;exitX=1;exitY=0.5;exitDx=0;exitDy=0;entryX=0;entryY=0.5;entryDx=0;entryDy=0;" parent="1" source="2VRXxN_XEZRk6mcmsxM--17" target="2VRXxN_XEZRk6mcmsxM--20" edge="1">
          <mxGeometry relative="1" as="geometry" />
        </mxCell>
        <mxCell id="2VRXxN_XEZRk6mcmsxM--38" style="edgeStyle=orthogonalEdgeStyle;rounded=0;orthogonalLoop=1;jettySize=auto;html=1;exitX=0.5;exitY=1;exitDx=0;exitDy=0;entryX=0.5;entryY=1;entryDx=0;entryDy=0;strokeColor=#FF6666;" parent="1" source="2VRXxN_XEZRk6mcmsxM--17" target="Uq3NfLOFYtls6R0m_rHG-1" edge="1">
          <mxGeometry relative="1" as="geometry">
            <Array as="points">
              <mxPoint x="350" y="610" />
              <mxPoint x="-42" y="610" />
            </Array>
          </mxGeometry>
        </mxCell>
        <mxCell id="2VRXxN_XEZRk6mcmsxM--17" value="IRModule_B is active?" style="rhombus;whiteSpace=wrap;html=1;" parent="1" vertex="1">
          <mxGeometry x="290" y="457.5" width="120" height="120" as="geometry" />
        </mxCell>
        <mxCell id="2VRXxN_XEZRk6mcmsxM--25" style="edgeStyle=orthogonalEdgeStyle;rounded=0;orthogonalLoop=1;jettySize=auto;html=1;exitX=1;exitY=0.5;exitDx=0;exitDy=0;entryX=0;entryY=0.5;entryDx=0;entryDy=0;" parent="1" source="2VRXxN_XEZRk6mcmsxM--19" target="2VRXxN_XEZRk6mcmsxM--1" edge="1">
          <mxGeometry relative="1" as="geometry" />
        </mxCell>
        <mxCell id="4NYzwK4U0VfKDkdtX9t3-1" style="edgeStyle=orthogonalEdgeStyle;rounded=0;orthogonalLoop=1;jettySize=auto;html=1;exitX=0.5;exitY=0;exitDx=0;exitDy=0;entryX=0.5;entryY=0;entryDx=0;entryDy=0;fillColor=#f8cecc;strokeColor=#b85450;" edge="1" parent="1" source="2VRXxN_XEZRk6mcmsxM--19" target="Uq3NfLOFYtls6R0m_rHG-1">
          <mxGeometry relative="1" as="geometry" />
        </mxCell>
        <mxCell id="2VRXxN_XEZRk6mcmsxM--19" value="IRModule_B is active?" style="rhombus;whiteSpace=wrap;html=1;" parent="1" vertex="1">
          <mxGeometry x="460" y="290" width="120" height="120" as="geometry" />
        </mxCell>
        <mxCell id="2VRXxN_XEZRk6mcmsxM--26" style="edgeStyle=orthogonalEdgeStyle;rounded=0;orthogonalLoop=1;jettySize=auto;html=1;exitX=1;exitY=0.5;exitDx=0;exitDy=0;entryX=0;entryY=0.5;entryDx=0;entryDy=0;" parent="1" source="2VRXxN_XEZRk6mcmsxM--20" target="2VRXxN_XEZRk6mcmsxM--2" edge="1">
          <mxGeometry relative="1" as="geometry" />
        </mxCell>
        <mxCell id="4NYzwK4U0VfKDkdtX9t3-2" style="edgeStyle=orthogonalEdgeStyle;rounded=0;orthogonalLoop=1;jettySize=auto;html=1;exitX=0.5;exitY=1;exitDx=0;exitDy=0;entryX=0.5;entryY=1;entryDx=0;entryDy=0;fillColor=#f8cecc;strokeColor=#b85450;" edge="1" parent="1" source="2VRXxN_XEZRk6mcmsxM--20" target="Uq3NfLOFYtls6R0m_rHG-1">
          <mxGeometry relative="1" as="geometry">
            <Array as="points">
              <mxPoint x="520" y="610" />
              <mxPoint x="-42" y="610" />
            </Array>
          </mxGeometry>
        </mxCell>
        <mxCell id="2VRXxN_XEZRk6mcmsxM--20" value="IRModule_A is active?" style="rhombus;whiteSpace=wrap;html=1;" parent="1" vertex="1">
          <mxGeometry x="460" y="457.5" width="120" height="120" as="geometry" />
        </mxCell>
        <mxCell id="2VRXxN_XEZRk6mcmsxM--27" style="edgeStyle=orthogonalEdgeStyle;rounded=0;orthogonalLoop=1;jettySize=auto;html=1;exitX=1;exitY=0.5;exitDx=0;exitDy=0;entryX=0;entryY=0.5;entryDx=0;entryDy=0;" parent="1" source="2VRXxN_XEZRk6mcmsxM--23" target="2VRXxN_XEZRk6mcmsxM--3" edge="1">
          <mxGeometry relative="1" as="geometry" />
        </mxCell>
        <mxCell id="2VRXxN_XEZRk6mcmsxM--35" style="edgeStyle=orthogonalEdgeStyle;rounded=0;orthogonalLoop=1;jettySize=auto;html=1;exitX=0.5;exitY=1;exitDx=0;exitDy=0;entryX=0.5;entryY=1;entryDx=0;entryDy=0;strokeColor=#FF6666;" parent="1" source="2VRXxN_XEZRk6mcmsxM--23" target="Uq3NfLOFYtls6R0m_rHG-1" edge="1">
          <mxGeometry relative="1" as="geometry" />
        </mxCell>
        <mxCell id="2VRXxN_XEZRk6mcmsxM--23" value="Count == MAX_COUNT?" style="rhombus;whiteSpace=wrap;html=1;" parent="1" vertex="1">
          <mxGeometry x="290" y="617.5" width="120" height="120" as="geometry" />
        </mxCell>
        <mxCell id="2VRXxN_XEZRk6mcmsxM--28" style="edgeStyle=orthogonalEdgeStyle;rounded=0;orthogonalLoop=1;jettySize=auto;html=1;exitX=1;exitY=0.5;exitDx=0;exitDy=0;entryX=0;entryY=0.5;entryDx=0;entryDy=0;" parent="1" source="2VRXxN_XEZRk6mcmsxM--24" target="2VRXxN_XEZRk6mcmsxM--4" edge="1">
          <mxGeometry relative="1" as="geometry" />
        </mxCell>
        <mxCell id="2VRXxN_XEZRk6mcmsxM--36" style="edgeStyle=orthogonalEdgeStyle;rounded=0;orthogonalLoop=1;jettySize=auto;html=1;exitX=0.5;exitY=1;exitDx=0;exitDy=0;entryX=0.5;entryY=1;entryDx=0;entryDy=0;strokeColor=#FF6666;" parent="1" source="2VRXxN_XEZRk6mcmsxM--24" target="Uq3NfLOFYtls6R0m_rHG-1" edge="1">
          <mxGeometry relative="1" as="geometry">
            <mxPoint x="-40" y="760" as="targetPoint" />
          </mxGeometry>
        </mxCell>
        <mxCell id="2VRXxN_XEZRk6mcmsxM--24" value="(IRModule_A &amp;amp;&amp;amp; IRModule_B)&lt;br&gt; is active?" style="rhombus;whiteSpace=wrap;html=1;" parent="1" vertex="1">
          <mxGeometry x="280" y="790" width="140" height="140" as="geometry" />
        </mxCell>
        <mxCell id="2VRXxN_XEZRk6mcmsxM--29" value="yes" style="text;html=1;align=center;verticalAlign=middle;whiteSpace=wrap;rounded=0;" parent="1" vertex="1">
          <mxGeometry x="400" y="320" width="60" height="30" as="geometry" />
        </mxCell>
        <mxCell id="2VRXxN_XEZRk6mcmsxM--30" value="yes" style="text;html=1;align=center;verticalAlign=middle;whiteSpace=wrap;rounded=0;" parent="1" vertex="1">
          <mxGeometry x="580" y="320" width="60" height="30" as="geometry" />
        </mxCell>
        <mxCell id="2VRXxN_XEZRk6mcmsxM--31" value="yes" style="text;html=1;align=center;verticalAlign=middle;whiteSpace=wrap;rounded=0;" parent="1" vertex="1">
          <mxGeometry x="400" y="490" width="60" height="30" as="geometry" />
        </mxCell>
        <mxCell id="2VRXxN_XEZRk6mcmsxM--32" value="yes" style="text;html=1;align=center;verticalAlign=middle;whiteSpace=wrap;rounded=0;" parent="1" vertex="1">
          <mxGeometry x="580" y="490" width="60" height="30" as="geometry" />
        </mxCell>
        <mxCell id="2VRXxN_XEZRk6mcmsxM--33" value="yes" style="text;html=1;align=center;verticalAlign=middle;whiteSpace=wrap;rounded=0;" parent="1" vertex="1">
          <mxGeometry x="410" y="650" width="60" height="30" as="geometry" />
        </mxCell>
        <mxCell id="2VRXxN_XEZRk6mcmsxM--34" value="yes" style="text;html=1;align=center;verticalAlign=middle;whiteSpace=wrap;rounded=0;" parent="1" vertex="1">
          <mxGeometry x="414" y="830" width="60" height="30" as="geometry" />
        </mxCell>
        <mxCell id="2VRXxN_XEZRk6mcmsxM--40" value="no" style="text;html=1;align=center;verticalAlign=middle;whiteSpace=wrap;rounded=0;" parent="1" vertex="1">
          <mxGeometry x="310" y="242.5" width="60" height="30" as="geometry" />
        </mxCell>
        <mxCell id="2VRXxN_XEZRk6mcmsxM--41" value="no" style="text;html=1;align=center;verticalAlign=middle;whiteSpace=wrap;rounded=0;" parent="1" vertex="1">
          <mxGeometry x="290" y="585" width="60" height="30" as="geometry" />
        </mxCell>
        <mxCell id="2VRXxN_XEZRk6mcmsxM--42" value="no" style="text;html=1;align=center;verticalAlign=middle;whiteSpace=wrap;rounded=0;" parent="1" vertex="1">
          <mxGeometry x="290" y="725" width="60" height="30" as="geometry" />
        </mxCell>
        <mxCell id="2VRXxN_XEZRk6mcmsxM--43" value="no" style="text;html=1;align=center;verticalAlign=middle;whiteSpace=wrap;rounded=0;" parent="1" vertex="1">
          <mxGeometry x="290" y="920" width="60" height="30" as="geometry" />
        </mxCell>
        <mxCell id="2VRXxN_XEZRk6mcmsxM--44" value="Green Led_1 ON (500ms)" style="rounded=1;whiteSpace=wrap;html=1;" parent="1" vertex="1">
          <mxGeometry x="667.5" y="367.5" width="120" height="60" as="geometry" />
        </mxCell>
        <mxCell id="2VRXxN_XEZRk6mcmsxM--45" value="Green Led_2 ON (500ms)" style="rounded=1;whiteSpace=wrap;html=1;" parent="1" vertex="1">
          <mxGeometry x="667.5" y="535" width="120" height="60" as="geometry" />
        </mxCell>
        <mxCell id="2VRXxN_XEZRk6mcmsxM--46" value="Red Led_1 Toggle (300ms)" style="rounded=1;whiteSpace=wrap;html=1;" parent="1" vertex="1">
          <mxGeometry x="667.5" y="695" width="120" height="60" as="geometry" />
        </mxCell>
        <mxCell id="2VRXxN_XEZRk6mcmsxM--47" value="Red Led_2 Toggle (200ms)" style="rounded=1;whiteSpace=wrap;html=1;" parent="1" vertex="1">
          <mxGeometry x="667.5" y="877.5" width="120" height="60" as="geometry" />
        </mxCell>
        <mxCell id="4NYzwK4U0VfKDkdtX9t3-3" value="no" style="text;html=1;align=center;verticalAlign=middle;whiteSpace=wrap;rounded=0;" vertex="1" parent="1">
          <mxGeometry x="460" y="585" width="60" height="30" as="geometry" />
        </mxCell>
        <mxCell id="4NYzwK4U0VfKDkdtX9t3-4" value="no" style="text;html=1;align=center;verticalAlign=middle;whiteSpace=wrap;rounded=0;" vertex="1" parent="1">
          <mxGeometry x="460" y="242.5" width="60" height="30" as="geometry" />
        </mxCell>
        <mxCell id="4NYzwK4U0VfKDkdtX9t3-8" value="Polls input register" style="rounded=1;whiteSpace=wrap;html=1;" vertex="1" parent="1">
          <mxGeometry x="-102.5" y="530" width="120" height="60" as="geometry" />
        </mxCell>
      </root>
    </mxGraphModel>
  </diagram>
  <diagram id="h4niRhYAlHzlL3p1m9Ma" name="Página-3">
    <mxGraphModel dx="2261" dy="1923" grid="1" gridSize="10" guides="1" tooltips="1" connect="1" arrows="1" fold="1" page="1" pageScale="1" pageWidth="827" pageHeight="1169" math="0" shadow="0">
      <root>
        <mxCell id="0" />
        <mxCell id="1" parent="0" />
        <mxCell id="1ctJFEkqVR-qOGKCSSDR-1" value="Leer_Dato" style="whiteSpace=wrap;html=1;aspect=fixed;" vertex="1" parent="1">
          <mxGeometry x="-590" y="60" width="80" height="80" as="geometry" />
        </mxCell>
        <mxCell id="1ctJFEkqVR-qOGKCSSDR-2" value="Proceso y Comparo" style="whiteSpace=wrap;html=1;aspect=fixed;" vertex="1" parent="1">
          <mxGeometry x="-450" y="60" width="80" height="80" as="geometry" />
        </mxCell>
        <mxCell id="1ctJFEkqVR-qOGKCSSDR-3" value="Ajusto PWM" style="whiteSpace=wrap;html=1;aspect=fixed;" vertex="1" parent="1">
          <mxGeometry x="-320.5" y="60" width="80" height="80" as="geometry" />
        </mxCell>
        <mxCell id="1ctJFEkqVR-qOGKCSSDR-4" value="Muestro en pantalla" style="whiteSpace=wrap;html=1;aspect=fixed;" vertex="1" parent="1">
          <mxGeometry x="-200" y="60" width="80" height="80" as="geometry" />
        </mxCell>
        <mxCell id="1ctJFEkqVR-qOGKCSSDR-5" value="" style="endArrow=classic;html=1;rounded=0;exitX=1;exitY=0.5;exitDx=0;exitDy=0;entryX=0;entryY=0.5;entryDx=0;entryDy=0;" edge="1" parent="1" source="1ctJFEkqVR-qOGKCSSDR-1" target="1ctJFEkqVR-qOGKCSSDR-2">
          <mxGeometry width="50" height="50" relative="1" as="geometry">
            <mxPoint x="-490" y="235" as="sourcePoint" />
            <mxPoint x="-440" y="185" as="targetPoint" />
          </mxGeometry>
        </mxCell>
        <mxCell id="1ctJFEkqVR-qOGKCSSDR-6" value="" style="endArrow=classic;html=1;rounded=0;exitX=1;exitY=0.5;exitDx=0;exitDy=0;entryX=0;entryY=0.5;entryDx=0;entryDy=0;" edge="1" parent="1" source="1ctJFEkqVR-qOGKCSSDR-2" target="1ctJFEkqVR-qOGKCSSDR-3">
          <mxGeometry width="50" height="50" relative="1" as="geometry">
            <mxPoint x="-500" y="110" as="sourcePoint" />
            <mxPoint x="-440" y="110" as="targetPoint" />
          </mxGeometry>
        </mxCell>
        <mxCell id="1ctJFEkqVR-qOGKCSSDR-7" value="" style="endArrow=classic;html=1;rounded=0;exitX=1;exitY=0.5;exitDx=0;exitDy=0;entryX=0;entryY=0.5;entryDx=0;entryDy=0;" edge="1" parent="1" source="1ctJFEkqVR-qOGKCSSDR-3" target="1ctJFEkqVR-qOGKCSSDR-4">
          <mxGeometry width="50" height="50" relative="1" as="geometry">
            <mxPoint x="-490" y="120" as="sourcePoint" />
            <mxPoint x="-430" y="120" as="targetPoint" />
          </mxGeometry>
        </mxCell>
        <mxCell id="1ctJFEkqVR-qOGKCSSDR-8" value="" style="endArrow=classic;html=1;rounded=0;exitX=1;exitY=0.5;exitDx=0;exitDy=0;entryX=0;entryY=0.5;entryDx=0;entryDy=0;" edge="1" parent="1" source="1ctJFEkqVR-qOGKCSSDR-4" target="1ctJFEkqVR-qOGKCSSDR-1">
          <mxGeometry width="50" height="50" relative="1" as="geometry">
            <mxPoint x="-210" y="290" as="sourcePoint" />
            <mxPoint x="-670" y="110" as="targetPoint" />
            <Array as="points">
              <mxPoint x="-60" y="100" />
              <mxPoint x="-60" y="230" />
              <mxPoint x="-670" y="230" />
              <mxPoint x="-670" y="100" />
            </Array>
          </mxGeometry>
        </mxCell>
        <mxCell id="towVsvV2Iou7i3QJEIx0-1" value="Leer_Dato:&lt;br&gt;-Prioridad ALTA&lt;br&gt;-Filtro notch&lt;br&gt;-Guardar dato en queue&lt;br&gt;&lt;br&gt;&lt;div&gt;&lt;br&gt;&lt;/div&gt;" style="whiteSpace=wrap;html=1;aspect=fixed;" vertex="1" parent="1">
          <mxGeometry x="-800" y="330" width="180" height="180" as="geometry" />
        </mxCell>
        <mxCell id="towVsvV2Iou7i3QJEIx0-2" value="Proceso y Comparo:&lt;br&gt;-Prioridad ALTA&lt;br&gt;-Leer dato de la queue&lt;br&gt;-Pasarlo por PID&lt;br&gt;-Comparar con el SP&lt;br&gt;-Guardar nuevo_PWM en la queue" style="whiteSpace=wrap;html=1;aspect=fixed;fillColor=#d80073;fontColor=#ffffff;strokeColor=#A50040;" vertex="1" parent="1">
          <mxGeometry x="-570" y="330" width="190" height="190" as="geometry" />
        </mxCell>
        <mxCell id="towVsvV2Iou7i3QJEIx0-4" style="edgeStyle=orthogonalEdgeStyle;rounded=0;orthogonalLoop=1;jettySize=auto;html=1;exitX=0.5;exitY=1;exitDx=0;exitDy=0;entryX=0.5;entryY=0;entryDx=0;entryDy=0;" edge="1" parent="1" source="towVsvV2Iou7i3QJEIx0-3" target="1ctJFEkqVR-qOGKCSSDR-2">
          <mxGeometry relative="1" as="geometry" />
        </mxCell>
        <mxCell id="towVsvV2Iou7i3QJEIx0-3" value="SP" style="rounded=0;whiteSpace=wrap;html=1;" vertex="1" parent="1">
          <mxGeometry x="-470" y="-40" width="120" height="60" as="geometry" />
        </mxCell>
        <mxCell id="towVsvV2Iou7i3QJEIx0-5" value="Ajusto PWM:&lt;br&gt;-Prioridad MEDIA&lt;br&gt;-Leer nuevo_PWM de la queue&lt;br&gt;-Setear nuevo PWM&lt;br&gt;-Guardar data_oled en la queue" style="whiteSpace=wrap;html=1;aspect=fixed;" vertex="1" parent="1">
          <mxGeometry x="-350" y="330" width="190" height="190" as="geometry" />
        </mxCell>
        <mxCell id="towVsvV2Iou7i3QJEIx0-6" value="Muestro en pantalla:&lt;br&gt;-Prioridad BAJA&lt;br&gt;-Escribir en pantalla&lt;div&gt;&lt;br&gt;&lt;/div&gt;" style="whiteSpace=wrap;html=1;aspect=fixed;" vertex="1" parent="1">
          <mxGeometry x="-800" y="560" width="180" height="180" as="geometry" />
        </mxCell>
      </root>
    </mxGraphModel>
  </diagram>
</mxfile>
